<mxfile host="app.diagrams.net" modified="2023-12-30T05:26:01.229Z" agent="Mozilla/5.0 (Windows NT 10.0; Win64; x64) AppleWebKit/537.36 (KHTML, like Gecko) Chrome/120.0.0.0 Safari/537.36" etag="qixyqOe9o3hNrH079cy4" version="22.1.16" type="device">
  <diagram id="C5RBs43oDa-KdzZeNtuy" name="Page-1">
    <mxGraphModel dx="1235" dy="1824" grid="1" gridSize="10" guides="1" tooltips="1" connect="1" arrows="1" fold="1" page="1" pageScale="1" pageWidth="827" pageHeight="1169" math="0" shadow="0">
      <root>
        <mxCell id="WIyWlLk6GJQsqaUBKTNV-0" />
        <mxCell id="WIyWlLk6GJQsqaUBKTNV-1" parent="WIyWlLk6GJQsqaUBKTNV-0" />
        <mxCell id="s8u0lpjEZg7LdPwyKuYj-28" value="&lt;font style=&quot;font-size: 28px;&quot;&gt;User Interface&lt;/font&gt;" style="rounded=1;whiteSpace=wrap;html=1;fontSize=12;glass=0;strokeWidth=1;shadow=0;labelBackgroundColor=none;" vertex="1" parent="WIyWlLk6GJQsqaUBKTNV-1">
          <mxGeometry x="20" y="-40" width="770" height="130" as="geometry" />
        </mxCell>
        <mxCell id="s8u0lpjEZg7LdPwyKuYj-56" style="edgeStyle=orthogonalEdgeStyle;rounded=0;orthogonalLoop=1;jettySize=auto;html=1;exitX=0.5;exitY=1;exitDx=0;exitDy=0;entryX=0;entryY=0.5;entryDx=0;entryDy=0;" edge="1" parent="WIyWlLk6GJQsqaUBKTNV-1" source="WIyWlLk6GJQsqaUBKTNV-3" target="s8u0lpjEZg7LdPwyKuYj-51">
          <mxGeometry relative="1" as="geometry" />
        </mxCell>
        <mxCell id="WIyWlLk6GJQsqaUBKTNV-3" value="ADMIN" style="rounded=1;whiteSpace=wrap;html=1;fontSize=12;glass=0;strokeWidth=1;shadow=0;labelBackgroundColor=none;" parent="WIyWlLk6GJQsqaUBKTNV-1" vertex="1">
          <mxGeometry x="70" y="10" width="120" height="40" as="geometry" />
        </mxCell>
        <mxCell id="s8u0lpjEZg7LdPwyKuYj-42" style="edgeStyle=orthogonalEdgeStyle;rounded=0;orthogonalLoop=1;jettySize=auto;html=1;exitX=0.5;exitY=1;exitDx=0;exitDy=0;entryX=0.5;entryY=0;entryDx=0;entryDy=0;" edge="1" parent="WIyWlLk6GJQsqaUBKTNV-1" source="s8u0lpjEZg7LdPwyKuYj-5" target="s8u0lpjEZg7LdPwyKuYj-41">
          <mxGeometry relative="1" as="geometry" />
        </mxCell>
        <mxCell id="s8u0lpjEZg7LdPwyKuYj-5" value="Travel Package" style="rounded=1;whiteSpace=wrap;html=1;fontSize=12;glass=0;strokeWidth=1;shadow=0;labelBackgroundColor=none;" vertex="1" parent="WIyWlLk6GJQsqaUBKTNV-1">
          <mxGeometry x="140" y="670" width="150" height="40" as="geometry" />
        </mxCell>
        <mxCell id="s8u0lpjEZg7LdPwyKuYj-45" style="edgeStyle=orthogonalEdgeStyle;rounded=0;orthogonalLoop=1;jettySize=auto;html=1;exitX=0;exitY=0.5;exitDx=0;exitDy=0;entryX=1;entryY=0.5;entryDx=0;entryDy=0;" edge="1" parent="WIyWlLk6GJQsqaUBKTNV-1" source="s8u0lpjEZg7LdPwyKuYj-20" target="s8u0lpjEZg7LdPwyKuYj-5">
          <mxGeometry relative="1" as="geometry" />
        </mxCell>
        <mxCell id="s8u0lpjEZg7LdPwyKuYj-88" style="edgeStyle=orthogonalEdgeStyle;rounded=0;orthogonalLoop=1;jettySize=auto;html=1;exitX=0.5;exitY=1;exitDx=0;exitDy=0;entryX=0.75;entryY=0;entryDx=0;entryDy=0;" edge="1" parent="WIyWlLk6GJQsqaUBKTNV-1" source="s8u0lpjEZg7LdPwyKuYj-20" target="s8u0lpjEZg7LdPwyKuYj-50">
          <mxGeometry relative="1" as="geometry">
            <Array as="points">
              <mxPoint x="640" y="950" />
              <mxPoint x="508" y="950" />
            </Array>
          </mxGeometry>
        </mxCell>
        <mxCell id="s8u0lpjEZg7LdPwyKuYj-20" value="Passengers" style="rounded=1;whiteSpace=wrap;html=1;fontSize=12;glass=0;strokeWidth=1;shadow=0;labelBackgroundColor=none;" vertex="1" parent="WIyWlLk6GJQsqaUBKTNV-1">
          <mxGeometry x="560" y="670" width="160" height="40" as="geometry" />
        </mxCell>
        <mxCell id="s8u0lpjEZg7LdPwyKuYj-57" style="edgeStyle=orthogonalEdgeStyle;rounded=0;orthogonalLoop=1;jettySize=auto;html=1;exitX=0.5;exitY=1;exitDx=0;exitDy=0;entryX=1;entryY=0.5;entryDx=0;entryDy=0;" edge="1" parent="WIyWlLk6GJQsqaUBKTNV-1" source="s8u0lpjEZg7LdPwyKuYj-0" target="s8u0lpjEZg7LdPwyKuYj-51">
          <mxGeometry relative="1" as="geometry" />
        </mxCell>
        <mxCell id="s8u0lpjEZg7LdPwyKuYj-0" value="USER" style="rounded=1;whiteSpace=wrap;html=1;fontSize=12;glass=0;strokeWidth=1;shadow=0;labelBackgroundColor=none;" vertex="1" parent="WIyWlLk6GJQsqaUBKTNV-1">
          <mxGeometry x="630" y="10" width="120" height="40" as="geometry" />
        </mxCell>
        <mxCell id="s8u0lpjEZg7LdPwyKuYj-90" style="edgeStyle=orthogonalEdgeStyle;rounded=0;orthogonalLoop=1;jettySize=auto;html=1;exitX=0.25;exitY=1;exitDx=0;exitDy=0;entryX=0.25;entryY=0;entryDx=0;entryDy=0;" edge="1" parent="WIyWlLk6GJQsqaUBKTNV-1" source="s8u0lpjEZg7LdPwyKuYj-39" target="s8u0lpjEZg7LdPwyKuYj-50">
          <mxGeometry relative="1" as="geometry" />
        </mxCell>
        <mxCell id="s8u0lpjEZg7LdPwyKuYj-39" value="Activity" style="rounded=1;whiteSpace=wrap;html=1;fontSize=12;glass=0;strokeWidth=1;shadow=0;labelBackgroundColor=none;" vertex="1" parent="WIyWlLk6GJQsqaUBKTNV-1">
          <mxGeometry x="320" y="870" width="150" height="40" as="geometry" />
        </mxCell>
        <mxCell id="s8u0lpjEZg7LdPwyKuYj-47" style="edgeStyle=orthogonalEdgeStyle;rounded=0;orthogonalLoop=1;jettySize=auto;html=1;exitX=0.5;exitY=1;exitDx=0;exitDy=0;entryX=0;entryY=0.5;entryDx=0;entryDy=0;" edge="1" parent="WIyWlLk6GJQsqaUBKTNV-1" source="s8u0lpjEZg7LdPwyKuYj-41" target="s8u0lpjEZg7LdPwyKuYj-39">
          <mxGeometry relative="1" as="geometry" />
        </mxCell>
        <mxCell id="s8u0lpjEZg7LdPwyKuYj-41" value="Destination" style="rounded=1;whiteSpace=wrap;html=1;fontSize=12;glass=0;strokeWidth=1;shadow=0;labelBackgroundColor=none;" vertex="1" parent="WIyWlLk6GJQsqaUBKTNV-1">
          <mxGeometry x="140" y="790" width="150" height="40" as="geometry" />
        </mxCell>
        <mxCell id="s8u0lpjEZg7LdPwyKuYj-91" style="edgeStyle=orthogonalEdgeStyle;rounded=0;orthogonalLoop=1;jettySize=auto;html=1;exitX=0.5;exitY=1;exitDx=0;exitDy=0;" edge="1" parent="WIyWlLk6GJQsqaUBKTNV-1" source="s8u0lpjEZg7LdPwyKuYj-50" target="s8u0lpjEZg7LdPwyKuYj-82">
          <mxGeometry relative="1" as="geometry" />
        </mxCell>
        <mxCell id="s8u0lpjEZg7LdPwyKuYj-50" value="Booking Service" style="shape=process;whiteSpace=wrap;html=1;backgroundOutline=1;" vertex="1" parent="WIyWlLk6GJQsqaUBKTNV-1">
          <mxGeometry x="365" y="980" width="190" height="80" as="geometry" />
        </mxCell>
        <mxCell id="s8u0lpjEZg7LdPwyKuYj-61" style="edgeStyle=orthogonalEdgeStyle;rounded=0;orthogonalLoop=1;jettySize=auto;html=1;exitX=0.5;exitY=1;exitDx=0;exitDy=0;entryX=0.5;entryY=0;entryDx=0;entryDy=0;" edge="1" parent="WIyWlLk6GJQsqaUBKTNV-1" source="s8u0lpjEZg7LdPwyKuYj-51" target="s8u0lpjEZg7LdPwyKuYj-52">
          <mxGeometry relative="1" as="geometry" />
        </mxCell>
        <mxCell id="s8u0lpjEZg7LdPwyKuYj-51" value="&lt;font style=&quot;font-size: 25px;&quot;&gt;Load Balancer&lt;/font&gt;" style="rounded=1;whiteSpace=wrap;html=1;" vertex="1" parent="WIyWlLk6GJQsqaUBKTNV-1">
          <mxGeometry x="266" y="160" width="296" height="80" as="geometry" />
        </mxCell>
        <mxCell id="s8u0lpjEZg7LdPwyKuYj-63" style="edgeStyle=orthogonalEdgeStyle;rounded=0;orthogonalLoop=1;jettySize=auto;html=1;exitX=0;exitY=0.5;exitDx=0;exitDy=0;entryX=0.5;entryY=0;entryDx=0;entryDy=0;" edge="1" parent="WIyWlLk6GJQsqaUBKTNV-1" source="s8u0lpjEZg7LdPwyKuYj-52" target="s8u0lpjEZg7LdPwyKuYj-5">
          <mxGeometry relative="1" as="geometry" />
        </mxCell>
        <mxCell id="s8u0lpjEZg7LdPwyKuYj-65" style="edgeStyle=orthogonalEdgeStyle;rounded=0;orthogonalLoop=1;jettySize=auto;html=1;exitX=1;exitY=0.5;exitDx=0;exitDy=0;entryX=0.5;entryY=0;entryDx=0;entryDy=0;" edge="1" parent="WIyWlLk6GJQsqaUBKTNV-1" source="s8u0lpjEZg7LdPwyKuYj-52" target="s8u0lpjEZg7LdPwyKuYj-20">
          <mxGeometry relative="1" as="geometry" />
        </mxCell>
        <mxCell id="s8u0lpjEZg7LdPwyKuYj-52" value="&lt;font style=&quot;font-size: 13px;&quot;&gt;Caching&lt;/font&gt;" style="rounded=1;whiteSpace=wrap;html=1;" vertex="1" parent="WIyWlLk6GJQsqaUBKTNV-1">
          <mxGeometry x="308" y="290" width="211" height="50" as="geometry" />
        </mxCell>
        <mxCell id="s8u0lpjEZg7LdPwyKuYj-53" value="&lt;font style=&quot;font-size: 20px;&quot;&gt;Database&lt;/font&gt;" style="shape=cylinder3;whiteSpace=wrap;html=1;boundedLbl=1;backgroundOutline=1;size=15;" vertex="1" parent="WIyWlLk6GJQsqaUBKTNV-1">
          <mxGeometry x="390" y="1230" width="140" height="210" as="geometry" />
        </mxCell>
        <mxCell id="s8u0lpjEZg7LdPwyKuYj-78" style="edgeStyle=orthogonalEdgeStyle;rounded=0;orthogonalLoop=1;jettySize=auto;html=1;exitX=0;exitY=0.5;exitDx=0;exitDy=0;entryX=0;entryY=0.762;entryDx=0;entryDy=0;entryPerimeter=0;" edge="1" parent="WIyWlLk6GJQsqaUBKTNV-1" source="s8u0lpjEZg7LdPwyKuYj-5" target="s8u0lpjEZg7LdPwyKuYj-53">
          <mxGeometry relative="1" as="geometry" />
        </mxCell>
        <mxCell id="s8u0lpjEZg7LdPwyKuYj-79" style="edgeStyle=orthogonalEdgeStyle;rounded=0;orthogonalLoop=1;jettySize=auto;html=1;exitX=0.25;exitY=1;exitDx=0;exitDy=0;entryX=0;entryY=0.5;entryDx=0;entryDy=0;entryPerimeter=0;" edge="1" parent="WIyWlLk6GJQsqaUBKTNV-1" source="s8u0lpjEZg7LdPwyKuYj-41" target="s8u0lpjEZg7LdPwyKuYj-53">
          <mxGeometry relative="1" as="geometry" />
        </mxCell>
        <mxCell id="s8u0lpjEZg7LdPwyKuYj-92" style="edgeStyle=orthogonalEdgeStyle;rounded=0;orthogonalLoop=1;jettySize=auto;html=1;exitX=0.5;exitY=1;exitDx=0;exitDy=0;" edge="1" parent="WIyWlLk6GJQsqaUBKTNV-1" source="s8u0lpjEZg7LdPwyKuYj-82" target="s8u0lpjEZg7LdPwyKuYj-53">
          <mxGeometry relative="1" as="geometry" />
        </mxCell>
        <mxCell id="s8u0lpjEZg7LdPwyKuYj-82" value="Itinerary" style="rounded=1;whiteSpace=wrap;html=1;fontSize=12;glass=0;strokeWidth=1;shadow=0;labelBackgroundColor=none;" vertex="1" parent="WIyWlLk6GJQsqaUBKTNV-1">
          <mxGeometry x="385" y="1100" width="150" height="40" as="geometry" />
        </mxCell>
        <mxCell id="s8u0lpjEZg7LdPwyKuYj-93" style="edgeStyle=orthogonalEdgeStyle;rounded=0;orthogonalLoop=1;jettySize=auto;html=1;exitX=0;exitY=1;exitDx=0;exitDy=0;entryX=0;entryY=0;entryDx=0;entryDy=60;entryPerimeter=0;" edge="1" parent="WIyWlLk6GJQsqaUBKTNV-1" source="s8u0lpjEZg7LdPwyKuYj-39" target="s8u0lpjEZg7LdPwyKuYj-53">
          <mxGeometry relative="1" as="geometry" />
        </mxCell>
      </root>
    </mxGraphModel>
  </diagram>
</mxfile>
